<?xml version="1.0" encoding="utf-8"?>
<!-- Generator: Adobe Illustrator 25.4.1, SVG Export Plug-In . SVG Version: 6.00 Build 0)  -->
<svg version="1.1" id="svg" xmlns="http://www.w3.org/2000/svg" xmlns:xlink="http://www.w3.org/1999/xlink" x="0px" y="0px"
	 viewBox="0 0 400 394.8" style="enable-background:new 0 0 400 394.8;" xml:space="preserve">
<style type="text/css">
	.st0{fill-rule:evenodd;clip-rule:evenodd;fill:#300076;}
</style>
<g id="svgg">
	<path id="path0" class="st0" d="M268.4,0.6c0,0.3,0.6,1,1.2,1.4c1.5,1.1,3.5,3.8,3.5,4.8c0,0.9-0.9,0.7-9.1-2.5
		c-8.2-3.2-8.6-3.2-20.8-2.5c-12.1,0.7-13.1,0.9-11.6,2.1c0.9,0.8,13.4,4.8,19.7,6.4c9.5,2.4,9.6,2.5,2.9,2.9
		c-5.4,0.3-6,0.6-4.1,2.2c5.4,4.5,30.4,15.2,39,16.5c3,0.5,2.3,1.1-1.9,1.5c-4.2,0.4-6.5,1-6.5,1.6c0,0.6,5.6,4.7,7.9,5.9
		c0.8,0.4,2.5,1.5,3.8,2.5c1.3,1,5.3,3.6,8.9,5.6c9.6,5.6,12.3,7.2,13.9,8.2c2.4,1.5,10.4,5.2,13.4,6.3c1.6,0.6,2.8,1.2,2.7,1.3
		c-0.2,0.3-4.3,1.1-6.9,1.3c-2.2,0.2-2,1.2,1.6,6.5c3.9,5.9,10.4,13,19.2,21.1c3.6,3.4,7.7,7.4,9.1,8.9l2.4,2.8l-2.2,0.1l-2.2,0.1
		l-0.3,2.6c-0.9,8,2.6,23.2,9.8,42.7c3,8.2,3.2,9.3,1.8,8.9c-5.5-1.6-5.5-1.6-5.7,4c-0.3,6.8,0.4,13.3,2.2,20.5
		c4.4,17.5,5.4,29.7,1.7,21.2c-1.3-2.9-1.6-2.8-2.8,0.4c-2.5,7-9.4,17.9-17.3,27.1l-1,1.2l0.1-24.1c0.1-18.4,0-24.1-0.4-24.1
		c-0.3,0-0.6-0.8-0.7-1.9c-1.2-8.7-3-9.9-3.8-2.4c-0.2,2-0.6,3.9-0.8,4.2c-1.1,1.3-1.3-0.4-1.6-11.5c-0.1-7-0.4-11.6-0.7-12.3
		c-0.3-0.6-0.6-2.3-0.9-3.8c-1.3-8.7-2.3-9.4-3-2.1c-0.7,7-1.5,6.1-1.7-1.9l-0.2-6.2h-1.2h-1.2v-3.6v-3.6l-2.8,0l-2.8,0v3.6v3.6
		l-1.4,0.2c-1.7,0.2-1.9,1.2-2,7.9c0,2.3-0.2,4.4-0.4,4.8c-0.2,0.3-0.4,0.5-0.4,0.4c-1.1-9.7-1.2-9.8-1.9-9.4
		c-0.7,0.5-1.7,10.7-2,22.1c-0.2,6.5-0.5,12-0.6,12.2c-0.6,0.9-1.3-0.4-1.6-2.9c-0.4-3.7-0.6-4.6-1.2-4.6c-0.6,0-1,1.2-1,3.8
		c-0.1,2.9-0.5,3.9-1.5,4.1c-1.1,0.2-1.5-0.8-2.1-5.2c-0.7-5.1-1.6-5.6-2.2-1.3c-0.4,2.8-0.9,1.3-0.9-2.8c0-2.7-0.2-3.4-0.8-4
		c-0.5-0.4-0.8-1.4-0.9-2.5l-0.1-1.8l-2.1-0.1l-2.1-0.1v1.9c0,1.2-0.2,2.1-0.7,2.6c-0.5,0.6-0.7,1.6-0.8,4.1c-0.1,3.6-0.6,4.3-1,1.7
		c-0.4-2.3-1.1-1.8-1.7,1.1c-0.3,1.3-0.9,3.2-1.3,4.1c-0.9,1.7-1.5,6.6-1.5,11.9l0,2.7H270c-9.2,0-16.7-0.1-16.7-0.3
		c0-0.2-0.2-2.3-0.3-4.8c-0.3-4.5-0.3-4.5-1.6-5.6c-0.9-0.7-1.3-1.4-1.3-2.1c0-3.9-2.6-4.2-3.6-0.4c-0.2,0.8-0.9,2-1.4,2.6
		c-0.9,1-1,1.5-1.3,5.6c-0.3,5.4,0,5-3.9,5.3l-3.1,0.2l-0.3-1.3c-0.4-1.9-0.3-44.3,0.1-46.4c0.2-1,0.5-2.5,0.6-3.3
		c0.2-1.2,0.1-1.6-0.4-2c-0.8-0.6-1.4-2.9-1.4-5.3c0-4-1.5-3-2,1.3c-0.5,4.7-1.6,6.4-1.6,2.5c0-1.9-0.1-2-1.3-2.3
		c-1.5-0.4-2.5-3.3-3.7-10.5c-1.3-8.1-5.1-7.5-6,0.8c-0.2,2.4-0.6,4.2-1.3,6c-0.5,1.2-0.8-7.3-0.8-22c0-11.1-0.2-15.9-0.6-18.2
		c-0.3-1.8-0.7-4.6-0.8-6.3c-0.4-5.2-1.6-4.2-2.1,1.8c-0.3,4.1-1.1,4.9-1.5,1.7c-0.2-1.2-0.7-3-1.2-4c-0.9-1.8-1-2.4-1.2-11.3
		c-0.1-5.2-0.4-10.1-0.6-10.9c-0.5-1.8-1.4-2-2-0.3c-1.1,3-2.6-1.1-1.9-5.1c0.6-3.3,0.1-5.3-1.5-6.3c-1.9-1.2-2.1-2.6-1-6.4
		c0.6-2.2,0.6-2.3-0.3-3.6c-1.4-2.1-2.6-14.7-2.7-28.1l0-5.4l1.2-1.1c0.9-0.9,1.2-1.5,1.2-2.6c0-1.8-1.3-3.6-2-2.9
		c-0.4,0.4-0.4,0.6,0,1.1c0.8,1,0.2,1.1-0.8,0.2L200.1,9l-0.6,0.9c-0.3,0.5-0.8,0.9-1.2,0.9c-0.5,0-0.5-0.1-0.1-0.6
		c0.3-0.3,0.4-0.9,0.2-1.3c-0.2-0.6-0.3-0.6-1,0.2c-1.2,1.5-1,3.9,0.4,5.2l1.2,1.1l0,7.3c-0.1,13.8-1.1,24.4-2.6,26.2
		c-0.9,1-0.9,1.2-0.4,3.6c0.9,4.2,0.8,5-1.1,6.7l-1.6,1.5l0.2,3.8c0.2,2.9,0.1,4.1-0.3,5.2c-0.6,1.5-1.4,1.8-1.4,0.6
		c0-0.5-0.3-0.8-0.6-0.8c-1.3,0-1.8,2.5-2.2,11.4c-0.5,9.8-0.5,10.3-1.8,12.7c-0.5,1-0.9,2.5-0.9,3.3c0,3-0.7,1.5-1-2
		c-0.4-5.7-1.3-5.2-2,1.1c-0.3,2.2-0.7,4.4-1,4.7c-0.4,0.5-0.5,4.1-0.4,19.1c0.1,20.1,0.1,20.5-1.4,18.7c-0.8-1-1-1.5-1-4.2
		c0-3.1-1.7-8.1-2.7-8.1c-1.4,0-3,4.2-3,7.6c0,3.2-0.1,3.5-1,4.4c-0.7,0.6-1.1,1.6-1.3,2.7c-0.4,2.8-0.8,3.2-2.3,2.8
		c-1.7-0.5-2,0-1.4,2.1c0.4,1.4,0.4,1.9,0,2.3c-0.8,0.8-1.4-0.2-1.9-3.9c-0.8-5.1-1.3-5-2.1,0.2c-0.2,1.6-0.7,3.3-1.1,3.7
		c-0.6,0.7-0.6,0.9,0.2,3.6c0.9,2.9,1.4,42.2,0.6,46.8l-0.2,1.5l-2.8,0c-3.7,0-3.7,0-3.9-4.4c-0.2-3.6-0.2-3.9-1.4-5.3
		c-0.7-0.8-1.3-1.8-1.3-2.2c0-3.5-2.4-4-3.4-0.7c-0.3,1.1-1,2.3-1.4,2.7c-0.7,0.5-0.9,1.3-1.2,5l-0.4,4.4l-5.6,0.3
		c-3.1,0.1-10.6,0.3-16.8,0.3l-11.2,0l-0.4-1c-0.2-0.6-0.4-3.2-0.4-5.8c0-4.1-0.1-5-1-7.2c-0.5-1.3-1-2.7-1-2.9
		c0-2.9-1.3-2.8-1.8,0.1c-0.2,0.9-0.4,1.7-0.6,1.7c-0.5,0-0.5-3.7,0-5.7c0.5-2,0.2-2.6-1.2-2.6h-1.2l0.1-2.3l0.1-2.3l-2.1-0.1
		l-2.1-0.1l0.1,1.5c0.1,3.2,0,3.7-0.8,3.7c-0.7,0-0.8,0.3-0.8,2.7c0,4.8-0.8,6.9-1.4,3.4c-0.3-1.7-0.8-2.5-1.3-2
		c-0.2,0.2-0.7,2.2-1.3,6c-0.6,3.3-0.7,3.7-1.5,3.9c-1.3,0.3-1.5-0.2-1.8-4.1c-0.5-6.2-1.7-6.5-2.1-0.6c-0.2,3.2-0.9,5.2-1.5,4.5
		c-0.2-0.2-0.4-5.7-0.6-12.3c-0.2-6.7-0.5-12.8-0.7-13.8c-0.3-1-0.6-3.4-0.7-5.4c-0.3-3.3-0.3-3.6-1.2-3.7c-1-0.1-1.1,0.2-1.5,4.8
		c-0.5,6.4-1.3,5.5-1.6-1.7c-0.3-5.7-0.6-7.1-1.5-7.1c-0.9,0-1.1-1.1-0.8-4l0.3-2.6l-2.7-0.2c-3.6-0.3-3.8-0.1-3.5,3.6
		c0.2,2.9,0.2,3-0.7,3.4c-1.2,0.5-1.4,1.6-1.5,7.1c-0.1,3.4-0.6,7-0.8,5.7c0-0.1-0.3-2-0.6-4.1c-0.9-6.6-3-7.1-3.5-0.8
		c-0.3,4.2-1.1,20.4-1.2,26.5c-0.2,6.9-1.6,5.9-2.1-1.5c-0.2-2.4-0.4-3.6-0.8-3.7c-0.8-0.3-0.9-0.1-1.7,4.6
		c-0.4,2.4-0.9,4.6-1.1,4.9c-0.3,0.4-0.3,6.8-0.1,20.3c0.3,20.2,0.2,29.7-0.5,29.3c-0.7-0.4-9.6-11.8-12.1-15.6
		c-2.7-4-5.8-10.2-7-14c-1-3.3-1.4-3.1-3.5,1.9c-0.6,1.4-0.7,1.5-1,0.8c-1-2.4-0.1-9.4,2.5-18.8c2.5-9.1,2.7-10.8,3-19.5
		c0.3-12.4,0.3-12.6-3.7-11c-3.2,1.3-3.3,1-0.7-6.1c7.2-19.6,10.2-31.4,10.2-41.4c0.1-7.2-0.1-7.4-4-6.3c-2.8,0.8,0.9-3.5,11.6-13.3
		C63.6,89.4,70.4,82,75,75.7c3.9-5.4,4-5.7,2.4-6c-1.2-0.2-8.7-1.4-9-1.4c-1.1,0,0.4-0.9,2.6-1.6c7.5-2.4,28-14.2,43.9-25.4
		c7.3-5.1,7.3-5.3,0.2-6c-5.2-0.5-7-1.2-4.2-1.7c7.9-1.3,25.4-8.5,35.4-14.4c6.5-3.9,7.1-4.8,2.9-4.8c-7.4,0-9.2-0.9-4-2
		c5.1-1.1,22.1-7.2,23.8-8.5c1.2-0.9,0.2-1.3-4.8-1.6c-12.6-0.8-21.7,0.2-28.3,2.9c-7.4,3.1-7.7,3.2-7.9,2.3
		c-0.1-0.5,0.7-1.5,2.5-3.2c2.8-2.7,3.1-3.1,1.7-3.1c-1,0-13.8,4.1-15.4,5C114.2,7.6,102,19,100.1,21.9c-1.6,2.4-2.2,1.5-2.2-3.3
		c0-3.6-0.1-4.4-0.6-4.4c-1.7,0-14.6,11-15.9,13.5c-0.5,1-1.3,2.2-1.8,2.8l-0.8,1l0.2-4.3c0.2-4.9,0-5.3-2.1-3.5
		c-0.8,0.7-2.7,2.2-4.1,3.4c-6.4,5.2-15.7,14.9-18.3,19c-3.9,6.2-7.1,13.6-8.5,19.6c-0.9,4.2-1.1,4.1-3.5-1.2
		c-2.4-5.4-2.7-5.5-5.1-2.5c-5.9,7.5-9.5,16.5-14.1,35c-3.1,12.5-5,18.8-5.5,18.4c-0.2-0.1-1-1.6-1.8-3.2c-2.8-5.5-3.2-5.3-5.3,2.6
		c-4.5,16.8-4.8,42.2-0.8,55.8c1,3.5,0.9,3.6-1.9,2.7c-2.3-0.7-2.8-1.1-4.3-3.4c-1.6-2.5-2.2-2.1-2.2,1.5c0,26,6.7,54.2,15,62.8
		c1.2,1.3,2.1,2.4,2,2.5c-0.5,0.4-6.4-2.2-9.2-4.1c-2.3-1.6-2.3-0.9-0.2,6.6c5.6,19.6,11.6,31.4,21.5,42.2c8.5,9.3,13,16,11.3,16.6
		c-2.6,1,3.1,10,14.9,23.3c4.1,4.6,6.4,6.5,12.8,10.8c3.6,2.4,12.5,11.7,12.5,13.1c0,6,8.9,10.8,20,10.8l5.2,0l0.1,2.1
		c0.1,3.5,3.1,6.8,6.2,6.8c1.6,0,2.1,0.6,1.6,1.8c-2,6,6.6,10.9,14.3,8.1c1.3-0.5,2.7-0.9,3-1.1c0.5-0.2,0.7,0.2,0.9,1.8
		c0.6,4,4.4,4.2,9.7,0.4l1.2-0.8v1.4c0,2.9,1.8,4.2,6,4.2c2.2,0,2.6,0.1,5.3,1.9c3.6,2.4,7.8,4.2,18.2,7.6
		c10.3,3.4,13.5,3.9,26.3,4.2c17.9,0.4,32.8-2.4,43.8-8.3c2.1-1.1,4.9-2.8,6.3-3.8c2.3-1.6,2.8-1.8,5.7-2.2c4.7-0.5,5.9-1.6,4.8-4.6
		l-0.3-1l1.2,0.9c5.2,3.7,10.2,3.3,10.5-0.7c0.1-2.1,0.2-2.1,3.7-0.8c4.7,1.7,10.5,0.5,13.5-2.8c1.4-1.6,1.6-2,1.4-5.2l-0.1-1.9
		l1.7-0.5c3.8-1,5.9-3.4,5.9-6.8c0-2.5,0.2-2.6,4.1-2.6c11-0.1,20.7-5.2,21.3-11c0.2-2.3,0.4-2.7,1.4-3.4c3.6-2.5,8.4-9,9.3-12.7
		c0.4-1.7,0.8-2.1,3.3-4c4.3-3.2,13.2-11.5,16.2-15.3c4-4.9,8.6-14.6,7-14.7c-0.3,0-0.9-0.1-1.3-0.1c-1.8-0.1-0.5-2.9,4-8.6
		c2.3-2.9,5.4-7.1,7.2-9.6c0.5-0.7,1.7-2.1,2.8-3.2c2.7-2.8,9-13.2,10.6-17.4c0.5-1.3,1.5-3.8,2.2-5.6c1.1-2.6,6.7-20.5,6.9-21.8
		c0.1-0.8-1.7-0.2-4.1,1.4c-2.5,1.6-6.7,3.4-7,3c-0.1-0.1,0.6-1.1,1.7-2.2c7.6-8.2,13.3-31.8,14.3-59.8c0.3-8.5,0.3-8.5-3.7-4.4
		c-4.3,4.4-5.5,4.5-4,0.3c3.5-10.3,3.2-40.2-0.6-53.5c-2.4-8.6-3.4-9-6-3.1c-2,4.6-3.3,1.7-7.3-16.7c-3-13.6-7-23.9-12.5-32.2
		c-3.7-5.5-3.8-5.5-5.9,0.4c-0.8,2.2-1.6,4.5-1.8,5c-0.6,1.5-1.4,0.4-1.7-2.2c-1.1-9-10.8-24.8-20.3-33.2c-5.6-4.9-11-9.3-11.5-9.3
		c-0.4,0-0.5,0.9-0.6,4.1l0,4.1l-1.5-1.8c-5.7-6.8-15.5-14.9-16.6-13.7c-0.2,0.2-0.4,1.7-0.4,3.3c-0.2,6.1-0.3,6.1-5.2,0.6
		c-8.3-9.2-11.5-11.4-22-14.8C269.4-0.1,268.4-0.3,268.4,0.6 M258.5,5c6.2,1.4,6.5,1.8,2.2,3.1l-1.9,0.6l-2.2-1.4
		c-1.2-0.7-2.7-1.5-3.3-1.6c-1.3-0.3-1.8-0.9-1-1.4C253,3.8,253.5,3.9,258.5,5 M149.5,5.5c0,0.5-6.7,3.6-7.9,3.6
		c-2.2,0-5-1.2-4.3-1.8c0.4-0.4,5.6-1.5,8.6-1.8c1.9-0.2,3.5-0.3,3.5-0.4C149.4,5.2,149.5,5.3,149.5,5.5 M291.8,15.4
		c1.4,1.5,2.9,3.3,3.4,4l0.9,1.3l-1.4,0.6c-3.7,1.5-5.5,0.3-11.4-7.5c-4.7-6.2-4.6-6.4,1.2-3.4C288.6,12.3,289.7,13.1,291.8,15.4
		 M120.3,11.8c-1,1.3-2.9,3.9-4.3,5.8c-3.3,4.6-4.3,5.4-7.8,5.4c-4.2,0-4-0.8,1.2-6c3.5-3.5,6-5.3,9.1-6.6
		C122.1,9,122.3,9.2,120.3,11.8 M198.6,12.5c0,0.3-0.2,0.5-0.4,0.3s-0.4-0.5-0.4-0.8c0-0.3,0.2-0.5,0.4-0.3
		C198.4,11.8,198.6,12.2,198.6,12.5 M315.6,13.3c-1.3,0.9-1.2,3.8,0.1,5.1c1.9,1.9,3.8,0.7,3.8-2.4
		C319.5,13.1,317.7,11.9,315.6,13.3 M200.8,13.5c0.1,0.2-0.1,0.4-0.6,0.4s-0.7-0.2-0.6-0.4c0.1-0.2,0.4-0.4,0.6-0.4
		C200.4,13.1,200.7,13.3,200.8,13.5 M273.7,15.4c3.3,1.5,11.1,10.4,10.1,11.5c-0.6,0.6-18.7-8.8-20.3-10.5
		C261.4,14,268.9,13.3,273.7,15.4 M137.6,15.8l1,0.3l-1.4,1.3c-1.8,1.7-7.8,5.2-11.8,6.9c-1.7,0.7-4.2,2-5.5,2.8
		c-3.6,2.2-3.6,1.5-0.1-3.3C125.3,16.4,130.9,13.9,137.6,15.8 M82.2,16.2c-1.3,0.5-1.4,1.5-0.6,3.5c1.3,3,4.2,1.6,4.5-2l0.1-1.6
		L84.6,16C83.8,15.9,82.7,16,82.2,16.2 M312.9,26.2c8.1,9.8,8.7,12.3,1.9,8.1c-7.3-4.5-10.3-9-9-13.6l0.6-2.2l0.9,1
		C307.8,20,310.3,23,312.9,26.2 M95.3,23.4C96,29,90.1,35.8,82.6,38.2c-1.8,0.6-0.9-2.4,1.9-5.7c0.8-1,3.4-4.2,5.8-7.1
		C94.8,19.7,94.9,19.7,95.3,23.4 M300.8,26.3c1.2,1.6,0.9,5.6-0.4,6.1c-2.5,0.8-4.9-2.1-3.8-4.6C297.2,26.1,299.9,25.1,300.8,26.3
		 M103.1,27.6c2.5,1.3,1.8,6.9-0.8,6.9c-3.9,0-4.2-6.6-0.4-7.5C101.9,27,102.4,27.2,103.1,27.6 M331.1,32.2c1.8,2.2,4.3,5.2,5.5,6.7
		c7.5,8.7,13.5,18.3,12.3,19.5c-1.3,1.4-17.9-10.7-20.7-15.1c-2.1-3.3-2.6-15.2-0.7-15.2C327.7,28.1,329.3,30,331.1,32.2 M274.1,31
		c-1.7,2-0.7,5.1,1.5,5.1c2.4,0,3.5-3.2,1.8-5.3C276.4,29.4,275.4,29.4,274.1,31 M74.3,37.2v5.4L73,45c-2.8,5-15.4,15-20.5,16.3
		C48.8,62.2,54.6,52.7,66,39C74.6,28.8,74.3,28.8,74.3,37.2 M124.4,31.2c-2.6,0.7-1.6,6.5,1.1,6.5c2.6,0,3.5-5.2,1.2-6.3
		C125.6,30.9,125.5,30.9,124.4,31.2 M308.2,37.2c3.8,1.7,7,5.2,11.3,12.7c2.8,4.9,2.7,5-1.8,2.4c-1.9-1.1-5.7-3-8.4-4.2
		c-2.7-1.2-5.7-2.6-6.5-3c-1.7-0.8-7.3-4.9-8.9-6.5l-0.9-0.9l1.3-0.4C298.3,36,305.3,35.9,308.2,37.2 M106.9,38.7
		c2.8,0.8-0.8,3.5-14.9,11.1c-7.9,4.3-10.4,5.8-11.7,7.2c-1.7,1.9-1.9,0.8-0.3-2.5c3.9-8.2,9-13.9,14.1-15.8
		C96.1,38,104.5,38,106.9,38.7 M324.6,45.5c0.8,1.3,3.2,4.3,5.2,6.8c4.1,5.1,4.5,6,2.3,5.2c-2.9-1.1-6.9-6.2-8.4-10.5
		C322.1,42.5,322.4,42.1,324.6,45.5 M78.7,44.7c-0.1,0.4-0.4,1.6-0.7,2.7c-1.2,5.3-4.9,10.4-9,12.6c-2.9,1.5-2.7,0.7,0.4-3.2
		c3.6-4.4,7.6-10,8.2-11.5C78.2,44,79.1,43.5,78.7,44.7 M354,48.2c-1.9,2.4-0.7,6.1,2,6.1c3.1,0,4.4-5.1,1.6-6.5
		C355.9,46.9,355,47,354,48.2 M42.6,52.5c-1.6,1.6-1.8,3.5-0.5,5.2c1.7,2.1,4.7,0.1,4.7-3.2C46.8,50.9,45,50.1,42.6,52.5 M316,62.2
		c-0.6,1.1-0.5,3.7,0.2,4.7c1.9,2.7,5.8-1.8,4-4.5C319.3,61.2,316.6,61,316,62.2 M363.1,66.6c1.1,5.7,2.2,9.1,5.4,16.5
		c4.3,10,8.4,22.7,7.5,23.5c-0.9,0.9-9.5-8.4-12.4-13.4c-6.2-10.4-7.2-23.6-2.5-30.9C361.9,61,362.1,61.4,363.1,66.6 M345.5,62.7
		c0.7,1,0.8,4.2,0.2,5.6c-1.2,2.7-5.1,0.3-5.1-3.2C340.5,62.1,343.9,60.5,345.5,62.7 M81.5,64.3c-2.1,1.7-1,5.9,1.6,5.9
		c1.9,0,2.7-1.4,2.4-3.8C85.2,63.5,83.6,62.7,81.5,64.3 M57.9,65.2c3.2,1.6,2.4,7.7-0.9,7.7c-2.4,0-3.8-2.9-2.8-5.8
		C55,64.7,56,64.2,57.9,65.2 M40.5,69.5l1.6,3.2l0,5.2c0,11-4.7,20.8-14.7,30.6c-2.9,2.9-3.2,3-3.2,1c0-3.6,2.4-10.8,7.6-23.1
		c3.4-7.9,4.4-10.8,5.2-15.8C38.1,65,38.3,64.9,40.5,69.5 M341.4,73.7c1.3,1.3,2.7,3.3,3.5,4.8c1.5,3,5.2,13.2,5,13.5
		c-0.3,0.3-10.4-9.9-12.2-12.4c-1.7-2.3-4.2-8.2-4.2-10.1v-1l2.9,1.5C337.9,70.9,340.1,72.5,341.4,73.7 M67.6,72.8
		C66.8,77.5,63.7,82.2,57,89c-3.5,3.6-6.4,6.4-6.5,6.4c-0.3-0.3,3.2-9.8,5-13.6c2.2-4.6,3.6-6,8.5-8.7C67.9,71,67.9,71,67.6,72.8
		 M352.2,79.2c0.7,4.6,2.3,8.8,6.2,16.2c1.3,2.5,2.2,4.5,2,4.5c-1.7,0-5.3-4.5-8.4-10.4l-1.6-3.1v-5.1
		C350.4,72.4,351,71.7,352.2,79.2 M200.4,84.2c-0.1,3.1-0.4,5.8-0.6,6.1c-0.4,0.7-0.5-8.8-0.1-11.7
		C200.2,74.8,200.7,78.4,200.4,84.2 M204.2,91.3c-0.7,0.7-0.9-1.8-0.7-7.8c0.4-8.3,0.8-8.2,1,0.3C204.5,88,204.4,91.1,204.2,91.3
		 M50.2,82.9c0.3,4.6-0.9,8.3-5.1,14.9c-4.4,6.9-7.8,9.2-4.6,3.1c6.1-11.5,6.5-12.4,7.7-18.8C49.3,76,49.7,76.2,50.2,82.9
		 M196.6,83.8c0,4.1-0.1,6.5-0.4,6.5c-0.4,0-0.6-10.7-0.1-12.2C196.5,76.5,196.6,77.4,196.6,83.8 M381.1,95.6
		c-1.9,2.4-2.1,4.2-0.5,6c1.9,2.2,4.2,1.6,5.1-1.2C386.8,97.2,383,93.2,381.1,95.6 M15.2,100.1c-1.7,1.7-0.8,7.4,1.2,7.4
		c3.7,0,5-5.3,1.8-7.4C16.6,98.9,16.4,98.9,15.2,100.1 M348.3,99.5c-3.7,1.4-2.7,7.9,1.2,7c1.1-0.3,2-1.9,1.9-3.7
		C351.3,100.2,350,98.9,348.3,99.5 M50,103.3c-2.5,1.7-1.5,6.2,1.3,6.2c1.7,0,2.6-1.2,2.6-3.2C53.9,103.1,52.2,101.8,50,103.3
		 M372.6,110.9c1.8,2.3,0.4,6.5-2.1,6.5c-2.3,0-3.7-4.9-1.8-6.7C369.8,109.5,371.6,109.6,372.6,110.9 M361,113.5
		c7.4,8.2,9.3,16.9,7.7,34.8c-0.7,8-1.1,8.4-3.1,3.7c-5.5-12.8-7.6-21.9-7.6-34.3C358,110.8,358.2,110.4,361,113.5 M384.3,120
		c0.1,3.7,0.5,9.9,0.9,13.8c0.7,8.2,1,28.5,0.4,28.7c-1.2,0.5-4.9-9.6-6-16.6c-1.4-8.6,0.2-24.3,3.3-31.4
		C383.8,112.2,384,112.9,384.3,120 M206.3,114.1c0.3,0.6-1.9,0.8-6.9,0.8c-4.4,0-6.7-0.5-3.8-0.9
		C198.1,113.7,206.1,113.8,206.3,114.1 M31.1,114.9c1,1.2,1.3,4.3,0.5,5.2c-2.5,2.8-6.5-2.5-4.1-5.5C28,113.9,30.3,114.1,31.1,114.9
		 M41.9,116.7c1.8,5.5-0.9,22.7-5.6,35.6c-3.4,9.2-3.9,9.6-4.5,3.7c-2-17.1-0.4-28.6,4.9-35.7C39.7,116.1,41.3,115,41.9,116.7
		 M376.1,128.9c0,7,0.1,14.7,0.2,17.1l0.3,4.4l-1.2-2.4c-2.6-5.3-3.7-19.1-2-24.7c1-3.2,2.4-7.1,2.6-7.1
		C376.1,116.2,376.1,121.9,376.1,128.9 M19.2,126.9l1.6,6.1l0,8.3c0,6.5-0.2,8.9-0.7,11.1c-1,3.9-3.4,11.1-4.5,13.7l-1,2.2l-0.3-2.2
		c-0.4-2.6-0.2-9.7,0.9-26.1c0.4-6.6,0.8-14.1,0.8-16.7C15.9,115.9,16.4,116.6,19.2,126.9 M24.9,123c2.1,5.6,2.2,6.3,2.2,14.4
		c0,7.8,0,7.5-1.9,12.7c-0.4,1-0.5,1.8-0.2,2c0.2,0.3,0.1,0.8-0.4,1.4c-0.8,0.9-0.8,0.9-0.6-12.1c0.2-12.1,0-17.9-0.9-20.7
		C22.5,118.3,23.8,120.1,24.9,123 M202.2,129.3c0,9.7-0.5,13.6-1,6.9c-0.2-3.7,0-14.5,0.4-15.7C202.1,119.1,202.2,121.1,202.2,129.3
		 M194.3,134.9c-0.2,4.1-0.3,3.4-0.3-4.9s0-9,0.3-4.9C194.4,127.8,194.4,132.2,194.3,134.9 M198.6,133c0,5.3-0.2,7.1-0.8,6.7
		c-0.4-0.3-0.5-12.7-0.1-16.6l0.3-2.8l0.3,3.8C198.4,126.2,198.5,130.2,198.6,133 M206.1,133c0,2.6-0.1,5.3-0.3,5.9
		c-0.6,2.5-0.9-3.5-0.6-10.9C205.6,119.8,206.1,122.6,206.1,133 M206.3,145.5c2,0.4-10.5,0.5-13.9,0c-1.7-0.2-0.3-0.3,5-0.3
		C201.5,145.2,205.5,145.3,206.3,145.5 M355.3,148.9c-1.5,1.1-1.7,5.3-0.3,6.7c1,1,3.2,0.7,4-0.5
		C361.4,151.6,358.5,146.7,355.3,148.9 M395,152.8c-2.5,2.5,0,8.5,3,7c1-0.5,2-2.8,2-4.7C400,152.2,397,150.8,395,152.8 M41.3,153.6
		c-1,1.3-1.2,4.7-0.2,6c1,1.5,3.5,1.2,4.5-0.4C47.9,155.5,43.9,150.3,41.3,153.6 M229.9,200.8V245l4.1,0c9.5,0.1,9.1,1.1-0.6,1.4
		l-6.9,0.3l-0.3-1c-0.4-1.5-0.7-71.7-0.3-80.5c0.4-8.6,0.5-9,2.7-8.7l1.4,0.2V200.8 M174.3,195.1c0.1,20.8,0,40.8-0.2,44.4l-0.3,6.5
		l-3.4,0.3c-4.6,0.4-12.8,0-12.6-0.6c0.1-0.3,2.4-0.6,6-0.7c3.2-0.2,6-0.4,6.1-0.5c0.1-0.1,0.3-19.2,0.5-42.5
		c0.4-44.9,0.4-44.8,1.4-45C174.4,156.3,174.2,153.3,174.3,195.1 M181.6,159.6c1.1,11.7,0.7,78.4-0.5,79.1c-1,0.6-1.1-2.9-1.1-35.7
		c-0.1-33.4,0.2-46.5,0.9-46.2C181.2,156.8,181.5,158.1,181.6,159.6 M220.6,198.7c0.1,40.2,0,41.1-1.4,39.7
		c-0.5-0.5-0.3-79.9,0.3-81.2C220.3,155.1,220.5,162,220.6,198.7 M0.8,158.4c-1.4,1.8-1,5.4,0.7,6.8c1.7,1.3,3.8-0.3,4.3-3.2
		C6.4,158.3,2.9,155.8,0.8,158.4 M203.3,193.6c0,19.5-0.2,34-0.3,32.4c-0.6-6.7-0.4-67.8,0.3-67.8
		C203.3,158.2,203.3,174.1,203.3,193.6 M194.6,194c0,22.5-0.2,31.5-0.3,25.7c-0.5-16.8-0.3-60.3,0.3-60.3
		C194.6,159.4,194.6,174.9,194.6,194 M378.7,163c2.7,1.4,1.4,7.1-1.6,7.1c-1.2,0-2.5-2-2.5-3.9C374.6,163,376.3,161.7,378.7,163
		 M365.4,165c7,7.2,8,18,2.9,31.1c-2.2,5.6-2.3,5.1-4-12.8C362.2,160.6,362.1,161.7,365.4,165 M80.9,166.9c3.7,1.9,4.4,7.6,0.7,6
		c-2.7-1.1-2.9-1.7-2.2-3.9c0.8-2.3,0.8-2.3,0-1.7c-0.7,0.6-2.5,4.1-2.5,4.8c0,0.3,1.1,0.8,3.1,1.3c3.7,0.9,3.4,0.7,2.9,1.8
		c-1.8,3.4-8.3,3.3-10-0.3C70.2,169.4,75.4,164.1,80.9,166.9 M325,166.9c5,3,2.9,10.7-2.9,10.7c-3.1,0-5.7-2.7-5.7-5.7
		c0-3.1,2.7-5.7,5.7-5.7C323,166.1,324.3,166.5,325,166.9 M24.2,167.7c1.5,1.1,1.7,5.6,0.4,6.5c-1.8,1.2-3.6,0.8-4.3-1.1
		C18.8,169.4,21.5,165.6,24.2,167.7 M37.5,171.8c-0.1,2.2-0.5,5.8-0.8,8c-0.3,2.2-0.8,7.5-1.2,11.9c-1.2,15.4-1.5,15.8-4.6,6.6
		c-3.9-11.5-2.8-21.2,3.3-27.6C37.8,166.8,37.8,166.8,37.5,171.8 M321.1,171.6c-0.2,0.6-0.7,1.7-1,2.5c-0.9,2-0.5,2.9,0.5,1.1
		c1.5-2.6,2.3-3.2,4.8-3.2c2.7,0,2.5-0.4-0.6-1.1C321.6,170.3,321.5,170.3,321.1,171.6 M391.5,176.5c-1.2,16-4.9,31.6-9.5,40.1
		c-2.1,4-2.7,3.3-3.5-4.6c-1.4-12.8,3.2-29.5,10-36.4C391.9,172.1,391.8,172.1,391.5,176.5 M11.9,181.6c3.5,4.1,5.9,8.9,8,16.6
		l1.7,6.1l0,7.1c0,10.7-1.1,14.9-3.1,11.8c-4.4-6.6-8.8-25.1-10-41.5C8.1,177.5,8.3,177.5,11.9,181.6 M377.6,187.7
		c-1,3.9-2.5,10-3.4,13.6c-1.7,7.4-1.8,7.5-2.2,5c-1-6.9,1-17.9,4.2-22.6C379.7,178.5,379.9,178.8,377.6,187.7 M22.7,187.4
		c4.2,6.3,5.3,10.2,5.4,19.1c0.2,8.7-0.2,8.7-2,0.1c-0.7-3.3-2.1-8.9-3.2-12.3C20,184.9,19.9,183.1,22.7,187.4 M357.3,193.4
		c-1.6,1.1-1.9,5.5-0.4,7c2.1,2.1,4.2,0,4.2-3.9C361.1,193.8,359.1,192.2,357.3,193.4 M40.3,198.5c-3.1,3.5,0.3,9.5,3.5,6.2
		c0.7-0.7,1-1.4,1-2.7C44.8,198.9,42,196.7,40.3,198.5 M331.2,199.1c0.1,0.5,0.2,11.4,0.1,24.3c-0.1,25.1-0.2,26-2.3,26.7
		c-0.6,0.2-0.4-50.6,0.2-51.5C329.7,197.9,331,198.2,331.2,199.1 M307.5,200.5c0.5,2,0.3,56.9-0.2,57.9c-1.2,2.1-1.3,0.6-1.3-22.8
		C306,204.5,306.4,196.3,307.5,200.5 M93.6,203.4c0.3,2.8,0.4,45.3,0.1,51l-0.3,4.5l-1-0.9l-1-0.9l0.2-27.6
		c0.1-15.2,0.3-27.8,0.5-28.1C92.7,200.5,93.4,201.3,93.6,203.4 M71.1,202.7c0.3,1.2,0.3,50.2,0,50.2c-2.9,0-4.1-5.4-3.2-14.3
		c0.4-3.7,0.8-12,0.9-21c0.2-8.2,0.4-15.1,0.6-15.4C70,201.5,70.8,201.7,71.1,202.7 M249.9,209.1c0.6,1.6,0.3,63.1-0.4,63.3
		c-1.8,0.7-1.8,1.8-1.8-30.3c0-31.8,0.1-33.7,1.2-33.7C249.4,208.5,249.8,208.8,249.9,209.1 M286.1,239.1l-0.1,30.6l-1.8,0.1
		l-1.8,0.1l-0.3-1.9c-0.3-2.4-0.2-49.8,0.1-55.1l0.3-4l1.4-0.2c0.8-0.1,1.6-0.3,1.9-0.3C286.1,208.5,286.2,214.8,286.1,239.1
		 M151.1,210c0.5,1.4,0.2,62-0.3,63.7c-0.5,1.5-1.2,1.7-1.6,0.5c-0.4-1.1-0.4-60.9,0-63.5C149.5,208.6,150.4,208.3,151.1,210
		 M116.9,210.4c0.3,0.3,0.2,59.9-0.1,60.2c-0.2,0.2-1,0.3-1.8,0.3l-1.5,0l0.1-30.3c0.1-24.6,0.2-30.4,0.6-30.6
		C114.7,209.7,116.5,209.9,116.9,210.4 M360.6,216.4c0.9,4.7-1.1,10.6-5.1,15.2c-1.4,1.6-3.1,3.8-3.7,4.9c-1.3,2.3-1.7,2.4-2,0.2
		c-0.8-5.8,0.9-10.6,6.4-17.4C360,214.4,360.2,214.3,360.6,216.4 M374.6,216.4c1.6,1.3,1.7,5.6,0.2,6.7c-2.2,1.6-4.5,0.1-4.5-3
		C370.3,216.5,372.5,214.6,374.6,216.4 M392.6,217.1c-2.1,2.7-1,7.7,1.6,7.7c3.7,0,4.2-6.4,0.6-8.4l-1.2-0.7L392.6,217.1
		 M41.6,219.8c0.2,0.5,1.9,2.9,3.6,5.2c3.8,5,4.9,7,5.7,10.8c1.6,7.1-0.1,8.7-3.7,3.4c-1.1-1.7-3-4.3-4.2-5.8c-2.6-3.2-3-4.5-3-9.2
		C40.1,219.1,40.6,217.6,41.6,219.8 M29.1,221.6c2,2.2,0.9,6.7-1.9,7.3c-2.9,0.7-4.3-6.2-1.6-7.7C26.8,220.6,28.4,220.7,29.1,221.6
		 M4.3,222.6c-0.5,0.3-1.1,1.1-1.4,2c-1.4,4.3,2.2,8,4.8,4.9C10.4,226.3,7.7,220.9,4.3,222.6 M372.4,229c0.2,0.2-1,1.5-2.6,3.1
		c-3.6,3.5-6.5,7.8-8.7,13.1c-1.9,4.6-1.9,4.6-3,2.8c-2.3-3.9-2.1-4.8,1.5-9.7c3-4,7.1-7.5,10.5-8.9
		C371.9,228.7,372,228.7,372.4,229 M201.6,232.2c1.1,0.8,2.1,1.6,2.3,1.8c0.2,0.1,1.5-0.2,2.8-0.7c4.5-1.8,4.9-1,1.5,3.5
		c-3.2,4.2-3.5,4.1,6.8,4.2l8.8,0.1l0.2,1.4c0.1,0.8,0.1,1.9,0,2.5l-0.2,1.1l-5.4,0.2c-3,0.1-7.3,0.3-9.5,0.3
		c-4.6,0.1-4.1,0.4-5.8-3.7c-1.5-3.6-1.6-3.8-2.5-3.9c-0.6-0.1-0.9,0.1-1.1,1c-0.1,0.6-0.4,1.7-0.7,2.3c-0.2,0.7-0.5,1.7-0.6,2.3
		c-0.4,2.1-2.8,2.8-6.8,1.9c-2.4-0.6-5.1-0.6-8.7,0c-5,0.8-6.2,0.2-6.2-3.2l0-2.1l4,0.1c5.6,0.2,12.9-0.3,12.9-0.8
		c0-0.2-1-1.4-2.1-2.7c-1.9-2-3.5-5.2-2.9-5.8c0.1-0.1,1,0.2,2,0.6c2,0.9,4.2,1.1,4.2,0.4c0-0.2,0.3-0.4,0.7-0.4
		c0.4,0,1.1-0.4,1.7-1C198.3,230.3,199.4,230.5,201.6,232.2 M32,235.3c3.5,1.8,8.1,6,10.5,9.7c2.3,3.5,2.2,3,0.7,6.6
		c-1.4,3.5-1.7,3.5-2.9,0.3c-1.9-5.2-6.7-12.5-9.9-15.1C26.7,233.9,27.5,233.1,32,235.3 M347.8,239.6c8.5,13.5,12.1,25.1,12.1,38.5
		v6.4l-2.1,2.4c-1.2,1.3-2.5,3.1-3,4c-1,1.8-1.9,2.3-5.9,2.7c-1.4,0.1-3.9,0.6-5.5,1c-3.6,1-3.4,1.3-2.8-5.1
		c0.9-9.6-0.2-15.8-4.4-25.3c-2.9-6.5-2.9-6.6-0.4-10.2c2-3,3.5-6.3,6.2-13.8C344.4,233.4,344,233.5,347.8,239.6 M384.5,235.4
		c0,0.2-0.7,1.7-1.6,3.3c-0.9,1.6-2.9,5.6-4.4,8.9c-5.4,11.7-11.8,21.2-13.4,20.2c-1-0.6,0-11.3,1.6-17.3c2-7.6,4.7-10.5,13.2-14
		C383.2,235.1,384.5,234.8,384.5,235.4 M57.7,241.1c2.3,7,5.5,14,7.5,16.2c1.8,2,2.6,3.7,2.3,4.6c-0.1,0.4-1.1,2.6-2.1,4.9
		c-4.4,9.8-5.9,19.9-4.3,29.1c0.5,3.2,0.2,4-1.5,3.4c-0.6-0.2-2.8-0.5-4.8-0.8c-7.2-0.8-7-0.7-12.5-8.5c-4.5-6.4,0.8-30.9,9.8-45.1
		C56.4,237.9,56.6,237.8,57.7,241.1 M22.8,242.5c7.9,3.2,11.3,8.4,12.5,19c0.5,4.5,0.5,11.3,0,11.3c-1.7,0-8.2-9.6-13.1-19.4
		c-2.2-4.4-4.7-9-5.5-10.2C14.6,239.9,16,239.7,22.8,242.5 M238.3,249.7c1,0.2-5.7,0.4-15.1,0.6c-15.8,0.3-22.4,0.1-17.2-0.6
		C208.8,249.4,236.1,249.4,238.3,249.7 M187.2,250c-4.4,0.1-11.6,0.1-16.1,0c-4.4-0.1-0.8-0.1,8-0.1C188,249.9,191.6,250,187.2,250
		 M169.7,253.3c0.5,0.3,0.6,1.8,0.5,10.6c-0.1,11.2-0.2,11.6-1.2,11.6c-1,0-1.2-1.1-1.2-6c0-5.3-0.6-8.2-1.7-8.6
		c-0.4-0.2-1.4-1.3-2.1-2.4c-2.3-3.9-3.7-2.1-3.8,4.8c-0.1,7.3-0.4,9.6-1.4,9.9c-1.3,0.5-1.4-0.4-1.2-10.2c0.2-9.8,0-9.3,3.9-9.3
		c1.4,0,3.4-0.2,4.4-0.4C168.2,252.9,169,252.9,169.7,253.3 M175.9,253.7l1.3,0l-0.1,10.8l-0.1,10.8l-1.9-0.1
		c-2.6-0.1-2.4,0.4-2.7-7.8c-0.2-4-0.4-8-0.6-8.9c-0.6-3,0.4-5.5,2.1-5.1C174.3,253.6,175.2,253.7,175.9,253.7 M184.7,263.8
		c0.1,7.3,0,9.9-0.4,10.6l-0.5,0.9l-0.3-1.2c-0.3-1.5-0.4-18-0.1-19.6C184.1,251.1,184.5,254.5,184.7,263.8 M205.6,254.4
		c0.5,2.2-0.2,13.5-0.8,12.8c-0.5-0.5-1.1-12.2-0.7-13C204.7,253,205.3,253.1,205.6,254.4 M217.2,263.2c0,8.8-0.3,11.8-0.9,9.5
		c-0.3-1.2-0.3-13.2,0-16.7C216.8,250.7,217.2,254,217.2,263.2 M224.6,254.6c0.3,1.5-0.2,18.1-0.6,18.4c-0.7,0.4-1.2-16.5-0.6-18.7
		C223.8,253,224.3,253.1,224.6,254.6 M240.4,253.6c0.5,0.2,0.6,1,0.6,4.3c0,11.4-0.8,17.9-1.7,14.6c-0.6-2-1.4-8.2-1.4-10.6
		c0-2.9-0.8-5.4-2.1-6.5c-0.7-0.6-1.5-0.3-1.5,0.6c0,0.3-0.4,1.1-0.8,1.7c-0.4,0.6-1,1.6-1.2,2.2c-0.4,1-0.4,1.1-1,0.4
		c-1.4-1.9-2.4,0.9-2.8,7.7c-0.1,2.7-0.3,5.1-0.5,5.3c-0.7,1.2-0.9-1.1-0.9-10v-9.9h6.3C236.9,253.3,240.1,253.4,240.4,253.6
		 M190.7,264.7c-0.8,6.1-0.2,8.2,2.1,7.9c0.9-0.1,1.3-0.4,1.5-1.1c0.3-1.1,1.6-1.6,3.4-1.2c1,0.2,1,0.3,0.3,0.3
		c-2.4,0.1-0.9,2.2,1.9,2.5c1.4,0.2,2.6,0.4,2.7,0.5c0.6,0.6-1.1,0.8-6.4,0.8h-6l-0.1-8.3c-0.1-10.2,0.3-15.2,0.8-8.5
		C190.9,260,190.9,263.1,190.7,264.7 M197.2,254.6c0.3,1.1-0.5,12-0.9,12.7c-0.8,1.3-1.3-7.3-0.7-11.7
		C196,253.6,196.8,253,197.2,254.6 M210.6,269c-0.3,1.1-0.4-0.4-0.4-5.8c0-4,0.1-7.8,0.3-8.3C210.8,253.4,211,267.2,210.6,269
		 M329.1,263.2c1.2,0.6,1,0.9-2.2,4c-1.7,1.6-4.5,4.9-6.4,7.5c-7.3,9.8-10.7,12-5.4,3.6c1.4-2.3,2.9-4.8,3.3-5.6
		C321.6,266.4,326.6,261.9,329.1,263.2 M74.1,264.2c2.7,1.4,10.5,14.5,11.8,19.8c0.6,2.5-3.1-2-6.8-8.3c-2.7-4.6-4-6.1-6.8-8.3
		c-2.4-1.8-2.5-2.3-1-3.2C72.6,263.5,72.7,263.5,74.1,264.2 M334,269.1c0.3,0.4-2.3,3.4-7.3,8.7c-4.3,4.5-5,4.7-2.9,0.7
		C326.9,272.1,332.6,266.9,334,269.1 M70.2,272c1.8,1.3,7.2,10.3,6.6,10.9c-0.1,0.1-1.2-1-2.4-2.5c-1.2-1.5-2.7-3.1-3.4-3.6
		c-1.9-1.3-4.5-4.7-4.2-5.4C67.1,270.5,68.6,270.8,70.2,272 M203.5,278.5l7,0.3v3.1c0,4,0.1,4.1,4.9,3.8l3.6-0.2l3.6,2.3
		c5.6,3.6,6.9,3.8,28.9,3l7.5-0.3l-0.5,0.9c-0.3,0.5-1.2,2-2,3.2c-0.8,1.2-1.6,2.9-1.8,3.6c-0.6,3.5-1.9,4.8-3.5,3.7
		c-1.3-0.8-1.5-0.8-4.9,0.5c-20.2,7.8-66,8.6-90.7,1.5c-5.8-1.7-6.1-1.9-6.7-5c-0.3-1.4-1-3.1-1.8-4.4c-0.8-1.1-1.4-2.2-1.4-2.4
		c0-0.2,6.1-0.4,13.6-0.5l13.6-0.1l4-2.2c5.8-3.2,5.4-3.1,16.4-3.1h9.9v-1.4v-1.4l-7.7-0.1c-8.7-0.1-8.4,0-7.5-2.4
		c1.1-2.9,1.8-3.2,5.5-3C195,278.2,199.6,278.4,203.5,278.5 M337.5,280.2c1.7,1.9,0.5,6-1.7,6c-1.1,0-2.8-2.2-2.8-3.8
		C333,279.9,335.9,278.5,337.5,280.2 M67,281.5c1.6,0,2.5,3.4,1.5,5.3c-1.7,3.2-5.6,1.1-4.9-2.6c0.3-1.6,1.7-3.2,2.5-2.9
		C66.4,281.4,66.8,281.5,67,281.5 M294.8,286.6c3,2.2,3.1,2.4,2.8,6.6l-0.2,3.8l2.1-0.2c5.1-0.6,5.1,3.9,0,9.6
		c-1.9,2.1-2.2,2.7-2,3.6c1.3,5.5,0.2,7.3-6.8,10.9c-4.3,2.2-4.6,2.2-6.4,0.6c-1.8-1.7-4.9-1.8-7.8-0.2c-2.8,1.6-2.6,1.1,1.3-3
		c6.7-7,10-13.5,10-19.6c0-3.4-0.4-3.2-2.4,1.6c-4.4,10.5-11.7,19.9-19.7,25.2c-5.5,3.7-6.1,3.2-2.8-2.3c1.9-3.2,2.4-5.2,1.6-5.7
		c-0.4-0.2-0.8,0.2-5.4,6.5c-4.4,6-6.1,7.5-9.7,8.8c-3.5,1.3-3.7,1.2-3.5-1.4c0.3-4,4.6-10.8,8.3-13.2c1.9-1.3,2.6-2.3,4.2-6.3
		c2-5.2,5-6.8,9.3-5.1c2.1,0.8,2.3,0.6,2.8-3.4c1.1-8.9,3.7-12.6,7.8-11.2c2.4,0.8,3.3,0.4,3.3-1.6
		C281.5,287,291.4,284.1,294.8,286.6 M118.5,287c2.4,1.2,4.1,2.8,4.9,4.7c0.7,1.7,1.6,1.9,2.5,0.5c0.1-0.2,1.1-0.4,2.2-0.4
		c3,0,5.2,4.6,5.9,12.1c0.4,4.5,0.5,4.6,2.1,3.4c3.6-2.7,7.4-1.3,9.3,3.4c2.1,5.2,2.5,5.8,4.4,6.9c3.8,2.2,10.3,14.5,8.1,15.3
		c-3.1,1.2-7.9-2.5-13.5-10.4c-5.3-7.4-6.9-6.5-2.6,1.5c2,3.8,2,4.2-0.1,3.3c-9.1-3.8-21.7-19.3-23.4-28.9c-0.3-2-1.6-2.1-2-0.2
		c-0.9,4.7,2.5,11.9,8.7,18.8c1.5,1.7,3.1,3.6,3.5,4.2l0.7,1.1l-2.1-0.8c-3.3-1.3-5.4-1.1-7.1,0.6l-1.4,1.5l-1.8-0.5
		c-5-1.3-10.2-5-11.2-7.8c-0.5-1.4-0.3-2,1.2-4.3c0.4-0.7,0.2-1.1-2.3-3.6c-5.2-5.3-5.1-10,0.3-9.6c1.6,0.1,1.8,0,1.7-0.7
		c-0.7-5.1-0.6-6.7,0.5-8.1C109.9,286,114.7,285.1,118.5,287 M363.3,286.7c-1.9,2.8-1.3,6,1.1,6.7c2.2,0.6,3.4-0.5,4.1-3.5
		C369,287.2,364.8,284.6,363.3,286.7 M328.6,287.5c4.2,2.5,5.5,6.2,3.8,11l-0.6,1.8l2,1.7c3,2.6,2.6,7.6-0.7,10
		c-1.4,1-1.5,1.3-0.5,2.7c2.2,3.2,0.8,6-3.8,7.5c-2.6,0.8-3.3,0.3-3.3-2.1c0-2.6-4.8-5.7-8.9-5.7c-2.4,0-2.5-0.5-0.5-2.9
		c2.1-2.5,3.9-5.2,6.6-10.2c3.2-6,2.6-6.9-1.2-1.9c-4.6,5.9-12.2,13.6-13.4,13.6c-0.6,0-1.8-3.8-1.4-4.7c0.1-0.3,1-1,1.9-1.4
		c2.3-1.2,2.5-2,2.2-9.1l-0.2-6.1l1.1-1c2.7-2.6,5-2.4,6.1,0.5c0.7,1.9,1.4,1.7,3-0.8C323.1,286.6,325.6,285.6,328.6,287.5
		 M80.5,289.1c1.9,0.6,2.7,1.4,3.6,3.4c0.9,1.9,1.7,2.2,2.3,0.6c1.2-3.2,3.5-3.7,6-1.3l1.6,1.5l-0.5,3.3c-1,6.8-0.1,10.4,2.9,12.2
		c1.2,0.7,1.4,1.1,1.2,1.7c-0.1,0.5-0.3,1.6-0.5,2.5c-0.1,0.9-0.4,1.8-0.6,1.9c-0.6,0.4-11-10.4-13.5-14.1c-2.2-3.2-3.4-4-3.4-2.4
		c0,1.4,5.3,10.3,9.1,15.3c1.4,1.8,1.4,1.8-1.6,2.3c-2.1,0.4-4.3,2-6.5,4.9c-3.2,4.2-3.7,4.4-7.4,2.5c-2.8-1.4-3.3-3.2-1.9-5.9
		c1-2,1-2.7-0.2-3.2c-4.2-1.6-3.8-8.8,0.7-11.3c0.7-0.4,0.7-0.5-0.1-2C68.4,294.3,73.9,286.8,80.5,289.1 M34,290.9
		c-2.4,2.6-1.4,6.4,1.7,6.4c2,0,2.4-0.4,2.9-2.9C39.3,291,36.1,288.5,34,290.9 M178.7,294.5c-1.8,0.3-2.1,0.6-1.7,1.4
		c0.3,0.7,31.7,0.9,40.4,0.4c4.7-0.3,5.5-1.3,1.3-1.8C215.3,294.1,180.5,294.2,178.7,294.5 M355.2,298c0,1.2-11.1,14.4-12.2,14.4
		c-4.2,0-1-10.8,4-13.4C348.8,298.1,355.2,297.3,355.2,298 M172.5,298.8c-0.9,0.4-0.5,1.2,0.7,1.5c5,1,52.7,0.1,52.7-1
		C226,298.5,174.3,298.1,172.5,298.8 M55.8,303.6c4.2,2.2,7,8.5,5,11.8c-0.6,1-1.2,1.7-1.4,1.7c-0.5,0-7.2-7.9-9.8-11.4l-2.2-3
		l1.5-0.2C51.1,302.2,53.9,302.7,55.8,303.6 M307.2,317.8c1.2,0.5,1.8,1.1,2.4,2.2c1,1.9,1.4,2.1,4.1,1.5c5.3-1.1,10.1,2.6,10.1,7.7
		c0,2.7-2.6,6.3-4.8,6.8c-1,0.2-1.1,0.4-0.9,1.3c0.6,3.1,0.7,4,0.3,5.6c-0.5,1.9-2.4,4.3-3.7,4.6c-0.5,0.1-1.8,0.7-2.9,1.2
		c-4.6,2.2-13.8,2.8-14,1c-0.6-5.9-2.6-8.1-7.7-8.6c-3.8-0.3-4.5-0.8-5.3-2.9c-0.4-1-1.3-2.5-2-3.3c-1.3-1.4-1.3-1.5-0.5-1.9
		c1.2-0.7,10.9-1.9,18.7-2.4c8.5-0.5,9.6-0.7,9.4-1.5c-0.2-1-2.2-1.3-8.4-1l-5.9,0.2l-1.7-1.2c-2.2-1.6-2.3-2.6-0.1-2.3
		c4.7,0.7,7.6-1.2,7.6-5.1v-2.6h2C304.7,317.1,306.4,317.4,307.2,317.8 M102.6,319.9c-1,3.9,4.9,7.7,8.7,5.6
		c1.1-0.6,1.2,0.3,0.2,1.8c-1.2,1.8-2.4,2.1-8.1,2.1c-5.5,0-8.7,0.5-8.7,1.4c0,0.8,0.9,0.9,9.5,1.1c8.3,0.2,13.2,0.7,16.6,1.7
		l2.1,0.6l-1.4,1.8c-0.8,1-1.6,2.6-1.8,3.5c-0.6,2.1-1.3,2.6-3.7,2.6c-5.3,0-7.6,1.8-8.7,6.9c-0.8,3.9-1.5,4.1-8.4,3
		c-9.2-1.4-13.3-4.9-12.2-10.3c0.6-3.1,0.7-3-1.1-3.7c-5.6-2.5-6.1-10.5-0.9-13.8c1.7-1.1,2-1.2,5.6-1c2.6,0.1,3.8,0,3.9-0.3
		c0.4-1.2,2.6-3.7,3.4-3.8C103.2,317.9,103.1,317.9,102.6,319.9 M245.8,318.3c0,0.2-0.5,1.9-1.2,3.9c-2.4,7-3.3,12.8-4.1,25.1
		c-0.5,8,2.7,22.2,6.4,28.2c1.6,2.7,1.7,2.6-1.9,4.9c-7.7,5-15.9,7.5-34.6,10.5c-3.6,0.6-15.6,0.4-19.2-0.3
		c-17.1-3.2-24.9-5.5-31.4-9.3c-3.2-1.9-3.2-1-0.1-8.6c6.4-15.4,6.8-32.7,0.9-46.3c-2-4.7-2.8-6.9-2.5-6.9c0.1,0,1.9,0.9,3.8,1.9
		c17.4,9.3,58.2,8.1,81.1-2.5C245.4,317.9,245.8,317.8,245.8,318.3 M289.6,326.7c1.1,0.5,1.3,1.4,0.5,1.7c-1.8,0.6-14,2.1-14.3,1.8
		C274.2,328.7,286.9,325.5,289.6,326.7 M120,327.7c7,1.2,11.1,3,6.8,3c-9.2,0-15.4-1.7-11.7-3.2C116.2,327,116,327,120,327.7
		 M293.4,334.5c0.1,0.4,1.5,1.4,3.3,2.3c1.7,0.9,4.3,2.4,5.7,3.3c2.8,1.8,3.3,1.9,3.5,0.4c0.2-1.8-2.5-3.5-8.8-5.7
		C293.9,333.6,293.3,333.6,293.4,334.5 M105.6,336.9c-6.2,2.9-6.7,3.3-6.9,5c-0.1,0.8,0,1.5,0.1,1.5c0.3,0,5.6-3,8.8-5
		C112.7,335.2,111.3,334.2,105.6,336.9 M138,336.7c3.1,0.7,4.7,1.8,5.9,3.8c1.2,2.1,2,2.3,2.4,0.5c0.7-3.4,6.3-2.8,8,0.9
		c0.3,0.6,1.3,1.4,2.3,1.9c7.3,3.7,7,9.1-0.4,8c-8.7-1.2-25.3,2.4-29.1,6.4c-1.8,1.8-0.4,2,2.8,0.3c4.1-2.2,4.5-1.7,4,4.6
		c-0.9,10.6-15.5,14.8-15.3,4.3c0.1-2.7,0-2.8-1.1-3.5c-4.1-2.4-3-8.1,1.9-9.4l1.7-0.5l-0.3-3c-0.4-4.7,1-5.9,7.6-6.5
		c3.3-0.3,3.5-0.7,2-3.2C128.3,338,132.4,335.4,138,336.7 M273.7,337.4c1.1,1.1,1.2,2.2,0.2,4.6c-0.7,1.7-0.7,1.7,3.8,2.3
		c5.6,0.8,6.7,1.8,6.2,6c-0.3,2.5,0.1,3,2.7,3.9c4,1.3,4.8,5.1,1.6,8l-1.9,1.7l0.1,2.9c0.2,5.3-3.8,7.1-9.7,4.5
		c-5-2.3-7.2-6.7-6.1-12.4c0.4-2.4,0.4-2.4,4.2-0.8c4.2,1.8,5.7,1.2,2.3-0.9c-4.9-3.1-14-5-24.9-5l-8.7,0l-0.5-1
		c-1.2-2.3-1-2.5,5.1-8c6.3-5.6,8.7-6.1,10.2-2.2c0.6,1.5,1.1,1.4,2-0.4C262.5,336.5,270.7,334.5,273.7,337.4 M224.5,341.2
		c-2.7,0.2-3.3,1.2-4.5,7.6c-0.6,3-0.4,3.3,4,5.5c5.8,2.9,5.9,5.4,0.4,11c-3.4,3.5-3.9,4.5-3.2,5.7c0.5,0.8,5.7-1.9,7.9-4.1
		c6.2-6.2,4.2-14.8-4.1-17.4c-2.3-0.7-2.2-0.6-1.5-3.3c0.2-0.7,0-0.7,6.1,0.2l1.8,0.3l0.9-2.5c0.5-1.4,0.9-2.6,0.9-2.8
		C233.1,340.9,228.6,340.9,224.5,341.2 M186.1,341.6c-1.3,0.2-1.7,1-2.3,5l-0.2,1.5l1.3-0.3c3.3-0.8,8.7-0.1,7.7,1
		c-1.5,1.7-4.7,11.4-6.2,19.1c-1,5-1,4.5,0.5,5.2c1.4,0.6,2.7,0.6,2.7-0.2c0-6.6,2.4-14.8,7.8-27.1c1-2.2,1.8-4.1,1.8-4.3
		C199,341.3,188.1,341.4,186.1,341.6 M205,341.6c-1.7,0.3-4,5.8-4,9.6c0,1.8,0,1.8,2.3,3c7,3.6,7.4,6.5,2,12.5
		c-5.7,6.5-0.2,6.3,5.9-0.2c6.1-6.6,4.2-13.6-4.5-16.4c-4.1-1.3-2.4-4.1,2.5-4.1c3.4,0,4.9-0.6,4.9-1.9c0-0.6,0.1-1.5,0.2-1.9
		C214.6,341.3,208.5,340.9,205,341.6 M172.5,342.5c-3.3,1.2-3.6,1.5-2,2.8l1.3,1.1l0,9c0,9.1-0.3,11.7-1.6,12.9
		c-1.1,1.1,0.3,1.6,4.8,1.8l4.1,0.2v-1.2c0-0.9-0.2-1.4-0.9-1.7l-0.9-0.4v-11C177.4,341,177.3,340.8,172.5,342.5 M251.9,358.9
		c5,3.1,7.8,6.6,6.2,7.6c-0.6,0.4-1.8-0.5-6.1-4.8C246,355.7,246,355.2,251.9,358.9 M153.4,357.9c-1.8,2.3-8.8,9.2-9.3,9.2
		c-1.6,0-0.3-2.7,2.6-5.4C151,357.7,155.6,355.1,153.4,357.9"/>
</g>
</svg>
